<?xml version="1.0" encoding="utf-8"?><svg viewBox="0 0 502.66 502.66" xmlns="http://www.w3.org/2000/svg" xmlns:xlink="http://www.w3.org/1999/xlink"><style>:root>svg{display:none}:root>svg:target{display:block}</style><svg xml:space="preserve" viewBox="0 0 128 128" id="email-icon" xmlns="http://www.w3.org/2000/svg"><path d="m18.964 39.486 3.114 2.537L6.355 61.317 3.242 58.78zm89.882-.238 15.915 19.53-3.114 2.538-15.915-19.53z"/><path d="M124.772 127.782H3.228V58.583h4.016v65.183h113.512V58.583h4.016z"/><path d="m39.474 93.194 2.697 2.974-35.106 31.831-2.697-2.974zm49.048.003 35.11 31.826-2.697 2.975-35.11-31.826z"/><path d="M87.802 95.657H40.199L19.11 74.101V0h89.782v74.101l-21.09 21.556zm-45.913-4.015h44.225l18.764-19.179V4.017H23.126v68.446l18.763 19.179z"/><path d="M64.548 72.013c-13.063 0-23.688-10.549-23.688-23.516 0-12.964 10.626-23.512 23.688-23.512 7.128 0 13.807 3.139 18.324 8.612l-3.097 2.558c-3.753-4.547-9.303-7.153-15.228-7.153-10.848 0-19.673 8.745-19.673 19.495 0 10.752 8.825 19.5 19.673 19.5 4.328 0 8.431-1.364 11.864-3.944l2.412 3.212c-4.134 3.105-9.07 4.748-14.275 4.748z"/><path d="M60.633 60.049c-.001 0 0 0 0 0-.929 0-1.912-.146-2.922-.434-3.041-.869-5.34-3.394-6.148-6.754-1.09-4.524.594-9.536 4.392-13.079 3.325-3.098 7.857-3.748 11.076-3.748 2.697 0 4.714.449 4.798.469l2.114.478-.636 2.071c-.161.52-3.928 12.771-4.598 14.684-1.388 3.952-4.407 6.313-8.076 6.313zm6.397-19.998c-2.497 0-5.97.463-8.338 2.669-3.275 3.056-3.814 6.757-3.226 9.201.473 1.963 1.692 3.36 3.347 3.832.65.186 1.263.28 1.819.28 2.49 0 3.705-1.973 4.285-3.628.477-1.356 2.703-8.549 3.855-12.282a21.628 21.628 0 0 0-1.742-.072z"/><path d="M73.686 59.837c-2.044 0-3.935-.698-5.44-2.057-3.11-2.806-.969-12.295.584-17.701l3.859 1.108c-1.72 5.996-2.536 12.504-1.713 13.653 1.489 1.338 3.39 1.078 4.712.617 3.032-1.055 6.506-4.528 7.283-9.13.561-3.326-.098-8.342-6.423-13.344l2.49-3.15c8.282 6.55 8.5 13.564 7.893 17.163-.93 5.506-5.01 10.545-9.923 12.255a10.099 10.099 0 0 1-3.322.586z"/><path d="M86.428 95.657H41.573L4.743 60.165l2.786-2.892 35.664 34.369h41.615l35.664-34.369 2.787 2.892z"/></svg><svg viewBox="0 0 502.664 502.664" xml:space="preserve" id="icon" xmlns="http://www.w3.org/2000/svg"><path d="M153.821 358.226 0 274.337v-46.463l153.821-83.414v54.574L46.636 250.523l107.185 53.431v54.272zm26.273 29.358L282.103 115.08h32.227L212.084 387.584h-31.99zm168.749-29.358v-54.272l107.164-52.999-107.164-52.59v-53.927l153.821 83.522v46.183l-153.821 84.083z"/></svg><svg viewBox="0 0 24 24" id="map-icon" xmlns="http://www.w3.org/2000/svg"><path d="M12 2a7.008 7.008 0 0 0-7 7c0 5.353 6.036 11.45 6.293 11.707l.707.707.707-.707C12.964 20.45 19 14.353 19 9a7.008 7.008 0 0 0-7-7Zm0 16.533C10.471 16.825 7 12.553 7 9a5 5 0 0 1 10 0c0 3.546-3.473 7.823-5 9.533Z"/><path d="M12 6a3 3 0 1 0 3 3 3 3 0 0 0-3-3Zm0 4a1 1 0 1 1 1-1 1 1 0 0 1-1 1Z"/></svg><svg viewBox="0 0 28.314 28.323" xml:space="preserve" id="phone-icon" xmlns="http://www.w3.org/2000/svg"><path d="m27.728 20.384-4.242-4.242a1.982 1.982 0 0 0-1.413-.586h-.002c-.534 0-1.036.209-1.413.586L17.83 18.97l-8.485-8.485 2.828-2.828c.78-.78.78-2.05-.001-2.83L7.929.585A1.986 1.986 0 0 0 6.516 0h-.001C5.98 0 5.478.209 5.101.587L.858 4.83C.729 4.958-.389 6.168.142 8.827c.626 3.129 3.246 7.019 7.787 11.56 6.499 6.499 10.598 7.937 12.953 7.937 1.63 0 2.426-.689 2.604-.867l4.242-4.242c.378-.378.587-.881.586-1.416 0-.534-.208-1.037-.586-1.415zm-5.656 5.658c-.028.028-3.409 2.249-12.729-7.07C-.178 9.452 2.276 6.243 2.272 6.244L6.515 2l4.243 4.244-3.535 3.535a.999.999 0 0 0 0 1.414l9.899 9.899a.999.999 0 0 0 1.414 0l3.535-3.536 4.243 4.244-4.242 4.242z"/></svg></svg>