<?xml version="1.0" encoding="utf-8"?><svg viewBox="0 0 800 800" xmlns="http://www.w3.org/2000/svg" xmlns:xlink="http://www.w3.org/1999/xlink"><style>:root>svg{display:none}:root>svg:target{display:block}</style><svg xml:space="preserve" viewBox="0 0 128 128" id="email-icon" xmlns="http://www.w3.org/2000/svg"><path d="m18.964 39.486 3.114 2.537L6.355 61.317 3.242 58.78zm89.882-.238 15.915 19.53-3.114 2.538-15.915-19.53z"/><path d="M124.772 127.782H3.228V58.583h4.016v65.183h113.512V58.583h4.016z"/><path d="m39.474 93.194 2.697 2.974-35.106 31.831-2.697-2.974zm49.048.003 35.11 31.826-2.697 2.975-35.11-31.826z"/><path d="M87.802 95.657H40.199L19.11 74.101V0h89.782v74.101l-21.09 21.556zm-45.913-4.015h44.225l18.764-19.179V4.017H23.126v68.446l18.763 19.179z"/><path d="M64.548 72.013c-13.063 0-23.688-10.549-23.688-23.516 0-12.964 10.626-23.512 23.688-23.512 7.128 0 13.807 3.139 18.324 8.612l-3.097 2.558c-3.753-4.547-9.303-7.153-15.228-7.153-10.848 0-19.673 8.745-19.673 19.495 0 10.752 8.825 19.5 19.673 19.5 4.328 0 8.431-1.364 11.864-3.944l2.412 3.212c-4.134 3.105-9.07 4.748-14.275 4.748z"/><path d="M60.633 60.049c-.001 0 0 0 0 0-.929 0-1.912-.146-2.922-.434-3.041-.869-5.34-3.394-6.148-6.754-1.09-4.524.594-9.536 4.392-13.079 3.325-3.098 7.857-3.748 11.076-3.748 2.697 0 4.714.449 4.798.469l2.114.478-.636 2.071c-.161.52-3.928 12.771-4.598 14.684-1.388 3.952-4.407 6.313-8.076 6.313zm6.397-19.998c-2.497 0-5.97.463-8.338 2.669-3.275 3.056-3.814 6.757-3.226 9.201.473 1.963 1.692 3.36 3.347 3.832.65.186 1.263.28 1.819.28 2.49 0 3.705-1.973 4.285-3.628.477-1.356 2.703-8.549 3.855-12.282a21.628 21.628 0 0 0-1.742-.072z"/><path d="M73.686 59.837c-2.044 0-3.935-.698-5.44-2.057-3.11-2.806-.969-12.295.584-17.701l3.859 1.108c-1.72 5.996-2.536 12.504-1.713 13.653 1.489 1.338 3.39 1.078 4.712.617 3.032-1.055 6.506-4.528 7.283-9.13.561-3.326-.098-8.342-6.423-13.344l2.49-3.15c8.282 6.55 8.5 13.564 7.893 17.163-.93 5.506-5.01 10.545-9.923 12.255a10.099 10.099 0 0 1-3.322.586z"/><path d="M86.428 95.657H41.573L4.743 60.165l2.786-2.892 35.664 34.369h41.615l35.664-34.369 2.787 2.892z"/></svg><svg viewBox="0 0 502.664 502.664" xml:space="preserve" id="icon" xmlns="http://www.w3.org/2000/svg"><path d="M153.821 358.226 0 274.337v-46.463l153.821-83.414v54.574L46.636 250.523l107.185 53.431v54.272zm26.273 29.358L282.103 115.08h32.227L212.084 387.584h-31.99zm168.749-29.358v-54.272l107.164-52.999-107.164-52.59v-53.927l153.821 83.522v46.183l-153.821 84.083z"/></svg><svg viewBox="0 0 56.006 56.006" xml:space="preserve" id="icon-phone" xmlns="http://www.w3.org/2000/svg"><path d="m25.189 40.87-1.444-.277a1.934 1.934 0 0 1-1.462-1.216 1.932 1.932 0 0 1 .245-1.885l.907-1.236a1 1 0 0 0-.1-1.299l-1.959-1.958a1.001 1.001 0 0 0-1.268-.121l-1.217.824a1.933 1.933 0 0 1-1.895.175 1.935 1.935 0 0 1-1.16-1.508l-.233-1.515a1 1 0 0 0-.988-.848h-2.77a1 1 0 0 0-.982.812l-.358 1.865a1.94 1.94 0 0 1-1.181 1.448 1.934 1.934 0 0 1-1.86-.189l-1.572-1.064a1.002 1.002 0 0 0-1.268.121l-1.959 1.958a1 1 0 0 0-.1 1.299l.907 1.236c.408.556.498 1.243.245 1.885a1.934 1.934 0 0 1-1.462 1.216l-1.443.277a1 1 0 0 0-.812.982v2.77a1 1 0 0 0 .848.988l1.515.233a1.937 1.937 0 0 1 1.508 1.16 1.938 1.938 0 0 1-.175 1.895l-.824 1.217a1 1 0 0 0 .121 1.268l1.958 1.959c.348.348.899.391 1.299.1l1.236-.907a1.934 1.934 0 0 1 1.885-.245 1.934 1.934 0 0 1 1.216 1.462l.277 1.444c.091.471.503.812.982.812h2.77a1 1 0 0 0 .988-.848l.164-1.065a1.955 1.955 0 0 1 1.193-1.522 1.957 1.957 0 0 1 1.921.232l.869.638a.998.998 0 0 0 1.299-.1l1.958-1.959a1 1 0 0 0 .121-1.268l-.824-1.217a1.938 1.938 0 0 1-.175-1.895 1.935 1.935 0 0 1 1.508-1.16l1.515-.233c.487-.076.847-.496.847-.989v-2.77a1 1 0 0 0-.811-.982zM24 43.764l-.667.103a3.95 3.95 0 0 0-3.036 2.337 3.95 3.95 0 0 0 .352 3.815l.361.533-.768.768-.177-.13a3.952 3.952 0 0 0-3.869-.467 3.942 3.942 0 0 0-2.405 3.065l-.033.218h-1.086l-.121-.633a3.952 3.952 0 0 0-2.449-2.947 3.958 3.958 0 0 0-3.8.494l-.544.4-.768-.768.361-.533a3.953 3.953 0 0 0 .352-3.815 3.95 3.95 0 0 0-3.036-2.337L2 43.764v-1.086l.633-.121a3.952 3.952 0 0 0 2.947-2.449 3.956 3.956 0 0 0-.494-3.8l-.399-.544.768-.768.889.602a3.96 3.96 0 0 0 3.747.381 3.963 3.963 0 0 0 2.38-2.919l.202-1.054h1.086l.103.667a3.95 3.95 0 0 0 2.337 3.036 3.95 3.95 0 0 0 3.815-.352l.533-.361.768.768-.399.544a3.952 3.952 0 0 0-.494 3.8 3.953 3.953 0 0 0 2.947 2.449l.631.121v1.086z"/><path d="M13 38.006c-2.757 0-5 2.243-5 5s2.243 5 5 5 5-2.243 5-5-2.243-5-5-5zm0 8c-1.654 0-3-1.346-3-3s1.346-3 3-3 3 1.346 3 3-1.345 3-3 3zm42.427-5.095c-2.008-3.796-8.98-7.912-9.287-8.092-1.278-.728-2.6-.957-3.723-.646-.844.233-1.531.767-1.994 1.545-1.02 1.22-2.285 2.646-2.592 2.867-2.371 1.604-4.252 1.414-6.295-.629L20.05 24.47c-2.045-2.045-2.233-3.928-.631-6.292.224-.31 1.649-1.575 2.869-2.595.778-.463 1.312-1.15 1.546-1.995.307-1.106.071-2.463-.653-3.732-.173-.296-4.289-7.269-8.085-9.276a4.903 4.903 0 0 0-5.796.872L6.764 3.989C.731 10.021.533 17.391 6.191 25.303a1.001 1.001 0 0 0 1.627-1.165C2.662 16.929 2.78 10.8 8.178 5.403l2.536-2.537a2.92 2.92 0 0 1 3.446-.519c3.294 1.743 7.256 8.453 7.289 8.51.449.788.62 1.609.457 2.197-.1.36-.323.633-.683.835l-.151.104c-.853.712-2.883 2.434-3.308 3.062-.612.904-1.018 1.793-1.23 2.666-.711-1.418-1.286-3.061-1.475-4.881a1.001 1.001 0 0 0-1.991.207c.722 6.953 6.13 11.479 6.359 11.668.026.021.056.029.083.047l10.61 10.61c.044.044.089.083.134.126.036.052.059.111.106.157.189.187 4.704 4.567 11.599 5.283a1.001 1.001 0 0 0 .206-1.99c-2.115-.219-3.988-.839-5.55-1.559.766-.229 1.544-.612 2.334-1.146.628-.425 2.35-2.455 3.062-3.308l.104-.151c.202-.359.475-.583.835-.683.587-.164 1.409.008 2.187.45 1.879 1.102 7.072 4.559 8.521 7.296a2.919 2.919 0 0 1-.519 3.445l-2.537 2.537c-5.394 5.393-11.791 5.446-19.016.159a.999.999 0 1 0-1.181 1.613c3.935 2.88 7.733 4.317 11.306 4.317 3.718 0 7.189-1.56 10.306-4.676l2.537-2.537a4.903 4.903 0 0 0 .873-5.794z"/></svg><svg viewBox="0 0 24 24" id="map-icon" xmlns="http://www.w3.org/2000/svg"><path d="M12 2a7.008 7.008 0 0 0-7 7c0 5.353 6.036 11.45 6.293 11.707l.707.707.707-.707C12.964 20.45 19 14.353 19 9a7.008 7.008 0 0 0-7-7Zm0 16.533C10.471 16.825 7 12.553 7 9a5 5 0 0 1 10 0c0 3.546-3.473 7.823-5 9.533Z"/><path d="M12 6a3 3 0 1 0 3 3 3 3 0 0 0-3-3Zm0 4a1 1 0 1 1 1-1 1 1 0 0 1-1 1Z"/></svg><svg viewBox="0 0 28.314 28.323" xml:space="preserve" id="phone-icon" xmlns="http://www.w3.org/2000/svg"><path d="m27.728 20.384-4.242-4.242a1.982 1.982 0 0 0-1.413-.586h-.002c-.534 0-1.036.209-1.413.586L17.83 18.97l-8.485-8.485 2.828-2.828c.78-.78.78-2.05-.001-2.83L7.929.585A1.986 1.986 0 0 0 6.516 0h-.001C5.98 0 5.478.209 5.101.587L.858 4.83C.729 4.958-.389 6.168.142 8.827c.626 3.129 3.246 7.019 7.787 11.56 6.499 6.499 10.598 7.937 12.953 7.937 1.63 0 2.426-.689 2.604-.867l4.242-4.242c.378-.378.587-.881.586-1.416 0-.534-.208-1.037-.586-1.415zm-5.656 5.658c-.028.028-3.409 2.249-12.729-7.07C-.178 9.452 2.276 6.243 2.272 6.244L6.515 2l4.243 4.244-3.535 3.535a.999.999 0 0 0 0 1.414l9.899 9.899a.999.999 0 0 0 1.414 0l3.535-3.536 4.243 4.244-4.242 4.242z"/></svg></svg>